<svg aria-hidden="true" style="position: absolute; width: 0; height: 0; overflow: hidden;" version="1.1" xmlns="http://www.w3.org/2000/svg" xmlns:xlink="http://www.w3.org/1999/xlink">
<defs>
<symbol id="icon-rs_school_js" viewBox="0 0 86 32">
<path fill="#000" style="fill: var(--color1, #000)" d="M44.485 10.599l4.099-0.265c0.094 0.67 0.265 1.169 0.546 1.528 0.452 0.561 1.075 0.842 1.902 0.842 0.608 0 1.091-0.14 1.418-0.436 0.312-0.234 0.499-0.608 0.499-0.998 0-0.374-0.171-0.733-0.468-0.966-0.312-0.281-1.044-0.561-2.198-0.811-1.886-0.421-3.242-0.982-4.037-1.699-0.795-0.67-1.247-1.652-1.216-2.697 0-0.717 0.218-1.434 0.623-2.026 0.468-0.67 1.107-1.2 1.87-1.496 0.826-0.359 1.98-0.546 3.429-0.546 1.777 0 3.133 0.327 4.068 0.998 0.935 0.655 1.496 1.715 1.668 3.164l-4.053 0.234c-0.109-0.623-0.327-1.075-0.686-1.372s-0.826-0.436-1.434-0.436c-0.499 0-0.873 0.109-1.122 0.312-0.234 0.187-0.39 0.468-0.374 0.779 0 0.234 0.125 0.452 0.312 0.592 0.203 0.187 0.686 0.359 1.45 0.514 1.886 0.405 3.227 0.811 4.053 1.231s1.418 0.935 1.777 1.543c0.374 0.623 0.561 1.34 0.546 2.073 0 0.873-0.249 1.746-0.748 2.478-0.514 0.764-1.231 1.356-2.073 1.715-0.888 0.39-2.011 0.592-3.351 0.592-2.369 0-4.006-0.452-4.925-1.372s-1.465-2.073-1.574-3.476zM0.982 15.213v-13.935h7.186c1.325 0 2.354 0.109 3.055 0.343 0.686 0.218 1.294 0.67 1.699 1.278 0.452 0.67 0.67 1.45 0.655 2.26 0.047 1.372-0.655 2.681-1.855 3.367-0.468 0.265-0.982 0.452-1.512 0.546 0.39 0.109 0.779 0.296 1.122 0.514 0.265 0.218 0.483 0.468 0.686 0.733 0.234 0.265 0.436 0.561 0.608 0.873l2.089 4.037h-4.894l-2.307-4.286c-0.296-0.546-0.546-0.904-0.779-1.075-0.312-0.218-0.686-0.327-1.060-0.327h-0.374v5.658h-4.318zM5.3 6.921h1.824c0.39-0.031 0.764-0.094 1.138-0.187 0.281-0.047 0.53-0.203 0.701-0.436 0.421-0.561 0.358-1.356-0.156-1.839-0.281-0.234-0.826-0.359-1.605-0.359h-1.902v2.821zM0 27.152l4.099-0.265c0.094 0.67 0.265 1.169 0.546 1.528 0.436 0.561 1.075 0.857 1.902 0.857 0.608 0 1.091-0.14 1.418-0.436 0.312-0.249 0.499-0.608 0.499-0.998 0-0.374-0.171-0.733-0.468-0.966-0.312-0.281-1.044-0.561-2.213-0.811-1.886-0.421-3.242-0.982-4.037-1.699-0.795-0.67-1.247-1.652-1.216-2.697 0-0.717 0.218-1.434 0.623-2.026 0.468-0.67 1.107-1.2 1.87-1.496 0.826-0.358 1.98-0.546 3.429-0.546 1.777 0 3.133 0.327 4.068 0.998s1.481 1.715 1.652 3.164l-4.053 0.234c-0.109-0.623-0.327-1.076-0.686-1.372-0.343-0.296-0.826-0.436-1.434-0.421-0.499 0-0.873 0.109-1.122 0.327-0.249 0.187-0.39 0.468-0.374 0.779 0 0.234 0.125 0.452 0.312 0.592 0.203 0.187 0.686 0.358 1.45 0.514 1.886 0.405 3.227 0.811 4.053 1.231s1.418 0.935 1.777 1.543c0.374 0.623 0.561 1.34 0.561 2.057 0 0.873-0.265 1.73-0.748 2.463-0.514 0.764-1.231 1.356-2.073 1.715-0.888 0.39-2.011 0.592-3.351 0.592-2.369 0-4.006-0.452-4.925-1.372-0.92-0.935-1.434-2.089-1.559-3.491z"></path>
<path fill="#000" style="fill: var(--color1, #000)" d="M20.731 26.061l3.772 1.138c-0.203 0.951-0.623 1.855-1.2 2.65-0.53 0.701-1.231 1.247-2.026 1.605-0.811 0.358-1.839 0.546-3.086 0.546-1.512 0-2.759-0.218-3.71-0.655-0.966-0.436-1.793-1.216-2.494-2.322s-1.044-2.525-1.044-4.255c0-2.307 0.608-4.084 1.839-5.315s2.962-1.855 5.206-1.855c1.761 0 3.133 0.358 4.146 1.060 0.998 0.717 1.746 1.808 2.245 3.273l-3.803 0.842c-0.094-0.327-0.234-0.655-0.421-0.935-0.234-0.327-0.53-0.577-0.888-0.764s-0.764-0.265-1.169-0.265c-0.982 0-1.73 0.39-2.245 1.185-0.39 0.577-0.592 1.496-0.592 2.743 0 1.543 0.234 2.603 0.701 3.18s1.122 0.857 1.98 0.857c0.826 0 1.45-0.234 1.87-0.686 0.421-0.483 0.733-1.153 0.92-2.026zM29.537 17.831h4.302v4.879h4.707v-4.879h4.333v13.935h-4.333v-5.642h-4.707v5.642h-4.302v-13.935z"></path>
<path fill="#000" style="fill: var(--color1, #000)" d="M42.287 24.799c0-2.276 0.639-4.053 1.902-5.315s3.039-1.902 5.3-1.902c2.322 0 4.099 0.623 5.362 1.87s1.886 2.993 1.886 5.237c0 1.637-0.281 2.962-0.826 4.006-0.53 1.029-1.356 1.87-2.369 2.432-1.044 0.577-2.338 0.873-3.881 0.873-1.574 0-2.868-0.249-3.897-0.748-1.060-0.53-1.933-1.356-2.51-2.369-0.639-1.091-0.966-2.447-0.966-4.084zM46.589 24.814c0 1.403 0.265 2.416 0.779 3.039 0.514 0.608 1.231 0.92 2.135 0.92 0.92 0 1.637-0.296 2.151-0.904s0.764-1.683 0.764-3.242c0-1.309-0.265-2.276-0.795-2.868-0.53-0.608-1.247-0.904-2.151-0.904-0.795-0.031-1.559 0.312-2.089 0.92s-0.795 1.621-0.795 3.039zM61.148 24.799c0-2.276 0.639-4.053 1.902-5.315s3.039-1.902 5.3-1.902c2.322 0 4.115 0.623 5.362 1.87s1.886 2.993 1.886 5.237c0 1.637-0.281 2.962-0.826 4.006-0.53 1.029-1.356 1.87-2.369 2.432-1.044 0.577-2.338 0.873-3.881 0.873-1.574 0-2.868-0.249-3.897-0.748-1.060-0.53-1.933-1.356-2.51-2.369-0.639-1.091-0.966-2.447-0.966-4.084zM65.45 24.814c0 1.403 0.265 2.416 0.779 3.039 0.514 0.608 1.231 0.92 2.135 0.92 0.92 0 1.637-0.296 2.151-0.904s0.764-1.683 0.764-3.242c0-1.309-0.265-2.276-0.795-2.868-0.53-0.608-1.247-0.904-2.151-0.904-0.795-0.031-1.574 0.312-2.089 0.92-0.53 0.608-0.795 1.621-0.795 3.039z"></path>
<path fill="#000" style="fill: var(--color1, #000)" d="M75.145 17.831h4.302v10.506h6.718v3.429h-11.036v-13.935z"></path>
<path fill="#fff" style="fill: var(--color2, #fff)" d="M46.656 8.813l22.382-16.866 15.487 20.552-22.382 16.866z"></path>
<path fill="#fff" style="fill: var(--color2, #fff)" d="M73.386 4.669c2.684 3.561 1.348 9.094-2.983 12.358s-10.018 3.023-12.701-0.538c-2.684-3.561-1.348-9.094 2.983-12.358s10.018-3.023 12.701 0.538z"></path>
<path fill="#fff" style="fill: var(--color2, #fff)" d="M52.888 10.185l15.672-11.81 9.728 12.909-15.672 11.81z"></path>
<path fill="#fff" style="fill: var(--color2, #fff); stroke: var(--color1, #000)" stroke="#000" stroke-linejoin="miter" stroke-linecap="butt" stroke-miterlimit="10" stroke-width="0.6235" d="M73.386 4.669c2.684 3.561 1.348 9.094-2.983 12.358s-10.018 3.023-12.701-0.538c-2.684-3.561-1.348-9.094 2.983-12.358s10.018-3.023 12.701 0.538z"></path>
<path fill="none" stroke="#000" style="stroke: var(--color1, #000)" stroke-linejoin="miter" stroke-linecap="butt" stroke-miterlimit="10" stroke-width="0.6235" d="M52.888 10.185l15.672-11.81 9.728 12.909-15.672 11.81z"></path>
<path fill="none" stroke="#000" style="stroke: var(--color1, #000)" stroke-linejoin="miter" stroke-linecap="butt" stroke-miterlimit="10" stroke-width="0.6235" d="M46.656 8.813l22.382-16.866 15.487 20.552-22.382 16.866z"></path>
<path fill="none" stroke="#000" style="stroke: var(--color1, #000)" stroke-linejoin="miter" stroke-linecap="butt" stroke-miterlimit="10" stroke-width="0.6235" d="M73.386 4.669c2.684 3.561 1.348 9.094-2.983 12.358s-10.018 3.023-12.701-0.538c-2.684-3.561-1.348-9.094 2.983-12.358s10.018-3.023 12.701 0.538z"></path>
<path fill="#000" style="fill: var(--color1, #000)" d="M61.163 9.555l1.559-1.091 1.917 2.728c0.327 0.436 0.577 0.904 0.764 1.418 0.109 0.39 0.078 0.811-0.078 1.185-0.203 0.468-0.53 0.857-0.966 1.138-0.514 0.358-0.951 0.561-1.325 0.623-0.358 0.062-0.733 0-1.075-0.156-0.374-0.187-0.701-0.452-0.951-0.795l1.34-1.247c0.109 0.171 0.249 0.327 0.405 0.452 0.109 0.078 0.234 0.125 0.374 0.125 0.109 0 0.218-0.047 0.296-0.109 0.156-0.094 0.265-0.281 0.249-0.468-0.047-0.265-0.156-0.53-0.327-0.733l-2.182-3.071zM65.839 11.285l1.418-1.122c0.156 0.187 0.359 0.327 0.577 0.405 0.312 0.094 0.639 0.031 0.904-0.171 0.187-0.125 0.343-0.296 0.405-0.514 0.094-0.281-0.062-0.592-0.343-0.686-0.047-0.016-0.094-0.031-0.14-0.031-0.187-0.016-0.514 0.062-0.998 0.265-0.795 0.327-1.418 0.452-1.886 0.405-0.452-0.047-0.873-0.281-1.122-0.67-0.187-0.265-0.281-0.577-0.296-0.888 0-0.359 0.094-0.717 0.296-1.013 0.296-0.421 0.655-0.779 1.091-1.060 0.655-0.452 1.231-0.67 1.73-0.67s0.966 0.234 1.403 0.717l-1.403 1.107c-0.281-0.359-0.811-0.436-1.169-0.156l-0.047 0.047c-0.156 0.094-0.265 0.234-0.327 0.405-0.047 0.125-0.016 0.265 0.062 0.374 0.062 0.078 0.156 0.14 0.265 0.14 0.125 0.016 0.343-0.047 0.655-0.187 0.779-0.327 1.372-0.514 1.777-0.577 0.343-0.062 0.701-0.031 1.029 0.109 0.296 0.125 0.546 0.343 0.717 0.608 0.218 0.312 0.343 0.686 0.359 1.075 0.016 0.405-0.094 0.795-0.312 1.138-0.281 0.421-0.639 0.779-1.060 1.060-0.857 0.592-1.559 0.842-2.12 0.748-0.608-0.094-1.107-0.405-1.465-0.857z"></path>
</symbol>
<symbol id="icon-gmail" viewBox="0 0 32 32">
<path fill="#d14836" style="fill: var(--color3, #d14836)" d="M32 6v20c0 1.133-0.867 2-2 2h-2v-18.151l-12 8.617-12-8.617v18.151h-2c-1.135 0-2-0.867-2-2v-20c0-0.567 0.216-1.067 0.575-1.424 0.359-0.363 0.86-0.576 1.425-0.576h0.667l13.333 9.667 13.333-9.667h0.667c0.567 0 1.067 0.216 1.425 0.576 0.36 0.357 0.575 0.857 0.575 1.424z"></path>
</symbol>
<symbol id="icon-linkedin" viewBox="0 0 32 32">
<path fill="#0077b5" style="fill: var(--color4, #0077b5)" d="M27.263 27.269h-4.739v-7.425c0-1.771-0.036-4.049-2.469-4.049-2.471 0-2.848 1.927-2.848 3.919v7.556h-4.739v-15.269h4.552v2.081h0.061c0.636-1.2 2.183-2.467 4.493-2.467 4.801 0 5.689 3.16 5.689 7.273zM7.116 9.911c-1.525 0-2.751-1.235-2.751-2.753 0-1.517 1.227-2.751 2.751-2.751 1.52 0 2.752 1.233 2.752 2.751 0 1.519-1.233 2.753-2.752 2.753zM9.492 27.269h-4.752v-15.269h4.752zM29.633 0h-27.272c-1.305 0-2.361 1.032-2.361 2.305v27.389c0 1.275 1.056 2.305 2.361 2.305h27.268c1.304 0 2.371-1.031 2.371-2.305v-27.389c0-1.273-1.067-2.305-2.371-2.305z"></path>
</symbol>
<symbol id="icon-mobile" viewBox="0 0 32 32">
<path d="M23 0h-14c-1.65 0-3 1.35-3 3v26c0 1.65 1.35 3 3 3h14c1.65 0 3-1.35 3-3v-26c0-1.65-1.35-3-3-3zM12 1.5h8v1h-8v-1zM16 30c-1.105 0-2-0.895-2-2s0.895-2 2-2 2 0.895 2 2-0.895 2-2 2zM24 24h-16v-20h16v20z"></path>
</symbol>
<symbol id="icon-link" viewBox="0 0 32 32">
<path d="M13.757 19.868c-0.416 0-0.832-0.159-1.149-0.476-2.973-2.973-2.973-7.81 0-10.783l6-6c1.44-1.44 3.355-2.233 5.392-2.233s3.951 0.793 5.392 2.233c2.973 2.973 2.973 7.81 0 10.783l-2.743 2.743c-0.635 0.635-1.663 0.635-2.298 0s-0.635-1.663 0-2.298l2.743-2.743c1.706-1.706 1.706-4.481 0-6.187-0.826-0.826-1.925-1.281-3.094-1.281s-2.267 0.455-3.094 1.281l-6 6c-1.706 1.706-1.706 4.481 0 6.187 0.635 0.635 0.635 1.663 0 2.298-0.317 0.317-0.733 0.476-1.149 0.476z"></path>
<path d="M8 31.625c-2.037 0-3.952-0.793-5.392-2.233-2.973-2.973-2.973-7.81 0-10.783l2.743-2.743c0.635-0.635 1.664-0.635 2.298 0s0.635 1.663 0 2.298l-2.743 2.743c-1.706 1.706-1.706 4.481 0 6.187 0.826 0.826 1.925 1.281 3.094 1.281s2.267-0.455 3.094-1.281l6-6c1.706-1.706 1.706-4.481 0-6.187-0.635-0.635-0.635-1.663 0-2.298s1.663-0.635 2.298 0c2.973 2.973 2.973 7.81 0 10.783l-6 6c-1.44 1.44-3.355 2.233-5.392 2.233z"></path>
</symbol>
<symbol id="icon-github" viewBox="0 0 32 32">
<path d="M16 0.395c-8.836 0-16 7.163-16 16 0 7.069 4.585 13.067 10.942 15.182 0.8 0.148 1.094-0.347 1.094-0.77 0-0.381-0.015-1.642-0.022-2.979-4.452 0.968-5.391-1.888-5.391-1.888-0.728-1.849-1.776-2.341-1.776-2.341-1.452-0.993 0.11-0.973 0.11-0.973 1.606 0.113 2.452 1.649 2.452 1.649 1.427 2.446 3.743 1.739 4.656 1.33 0.143-1.034 0.558-1.74 1.016-2.14-3.554-0.404-7.29-1.777-7.29-7.907 0-1.747 0.625-3.174 1.649-4.295-0.166-0.403-0.714-2.030 0.155-4.234 0 0 1.344-0.43 4.401 1.64 1.276-0.355 2.645-0.532 4.005-0.539 1.359 0.006 2.729 0.184 4.008 0.539 3.054-2.070 4.395-1.64 4.395-1.64 0.871 2.204 0.323 3.831 0.157 4.234 1.026 1.12 1.647 2.548 1.647 4.295 0 6.145-3.743 7.498-7.306 7.895 0.574 0.497 1.085 1.47 1.085 2.963 0 2.141-0.019 3.864-0.019 4.391 0 0.426 0.288 0.925 1.099 0.768 6.354-2.118 10.933-8.113 10.933-15.18 0-8.837-7.164-16-16-16z"></path>
</symbol>
</defs>
</svg>
